<?xml version="1.0" encoding="utf-8"?>
<!-- Generator: Adobe Illustrator 25.0.0, SVG Export Plug-In . SVG Version: 6.00 Build 0)  -->
<svg version="1.1" id="Layer_1" xmlns="http://www.w3.org/2000/svg" xmlns:xlink="http://www.w3.org/1999/xlink" x="0px" y="0px"
	 viewBox="0 0 116.5 36" style="enable-background:new 0 0 116.5 36;" xml:space="preserve">
<style type="text/css">
	.st0{fill:#60007D;}
	.st1{fill:#30137D;}
	.st2{fill:#1860AE;}
	.st3{fill:#7AC300;}
	.st4{fill:#F2CE00;}
	.st5{fill:#EF6A00;}
	.st6{fill:#CC001A;}
</style>
<g>
	<path d="M6.68,21.06c1.19,1.28,2.72,1.92,4.6,1.92c0.84,0,1.53-0.17,2.06-0.51c0.53-0.34,0.8-0.81,0.8-1.42
		c0-0.54-0.16-0.91-0.48-1.13c-0.33-0.22-0.76-0.34-1.3-0.36l-2.58-0.23c-1.22-0.12-2.22-0.54-2.98-1.27
		c-0.78-0.71-1.19-1.71-1.21-2.99c0.02-1.54,0.55-2.69,1.58-3.47c1.01-0.77,2.29-1.16,3.83-1.16c0.67,0,1.27,0.04,1.81,0.13
		c0.53,0.1,1.03,0.23,1.5,0.4c0.9,0.38,1.7,0.88,2.41,1.52l-1.81,2.18c-0.56-0.42-1.15-0.76-1.78-1.04
		c-0.62-0.24-1.33-0.36-2.13-0.36c-0.92,0-1.56,0.17-1.92,0.51C8.7,14.14,8.5,14.57,8.5,15.1c-0.02,0.34,0.13,0.63,0.43,0.88
		c0.28,0.28,0.78,0.46,1.49,0.53l2.41,0.19c1.51,0.12,2.61,0.59,3.28,1.42c0.63,0.81,0.94,1.84,0.94,3.08
		c-0.02,1.46-0.59,2.58-1.72,3.37c-1.12,0.81-2.55,1.22-4.29,1.24c-2.37,0-4.5-0.89-6.39-2.68L6.68,21.06z"/>
	<path d="M18.53,10.65h2.91v1.56c0.97-1.12,2.22-1.7,3.75-1.75c1.78,0.05,3.08,0.7,3.9,1.96c0.4,0.47,0.67,1.09,0.82,1.86
		c0.14,0.76,0.21,2.05,0.21,3.87c0,1.77-0.07,3.04-0.21,3.81c-0.15,0.77-0.42,1.4-0.82,1.89c-0.4,0.58-0.93,1.04-1.58,1.39
		c-0.64,0.36-1.42,0.54-2.32,0.56c-0.75,0-1.41-0.17-2-0.5c-0.63-0.31-1.22-0.73-1.75-1.26v7.66h-2.91V10.65z M24.31,22.81
		c0.69,0,1.24-0.13,1.64-0.41c0.4-0.28,0.69-0.64,0.85-1.07c0.19-0.45,0.31-0.96,0.38-1.51c0.02-0.54,0.03-1.1,0.03-1.67
		c0-0.6-0.01-1.18-0.03-1.75c-0.07-0.57-0.19-1.07-0.38-1.51c-0.17-0.45-0.45-0.81-0.85-1.07c-0.4-0.24-0.95-0.36-1.64-0.36
		c-0.65,0-1.17,0.14-1.55,0.42c-0.4,0.28-0.69,0.65-0.88,1.1c-0.18,0.45-0.29,0.95-0.35,1.48c-0.06,0.56-0.08,1.12-0.08,1.69
		c0,0.53,0.03,1.06,0.08,1.59c0.06,0.56,0.17,1.07,0.35,1.52c0.19,0.45,0.48,0.82,0.88,1.1C23.14,22.67,23.65,22.81,24.31,22.81z"/>
	<path d="M34.68,19.29c0,1.2,0.34,2.12,1.01,2.75c0.62,0.64,1.45,0.95,2.46,0.95c1.18,0,2.24-0.49,3.18-1.46l2.11,1.86
		c-1.48,1.64-3.23,2.44-5.23,2.42c-0.76,0-1.51-0.12-2.24-0.35c-0.36-0.12-0.72-0.29-1.06-0.5c-0.36-0.18-0.7-0.41-1.02-0.68
		c-0.62-0.56-1.11-1.34-1.5-2.34c-0.42-0.96-0.63-2.21-0.63-3.75c0-1.48,0.18-2.71,0.55-3.7c0.36-1,0.83-1.79,1.4-2.37
		c0.58-0.59,1.23-1.01,1.94-1.27c0.71-0.26,1.41-0.39,2.1-0.39c1.66,0.02,3.06,0.58,4.21,1.69c1.17,1.13,1.76,2.68,1.78,4.65v2.48
		H34.68z M40.81,16.81c-0.04-1.17-0.34-2.06-0.91-2.66c-0.56-0.57-1.28-0.86-2.16-0.86s-1.6,0.29-2.16,0.86
		c-0.55,0.6-0.85,1.48-0.91,2.66H40.81z"/>
	<path d="M57.07,23.23c-0.63,0.75-1.38,1.35-2.24,1.82c-0.86,0.49-1.85,0.74-2.98,0.76c-1.71,0-3.22-0.6-4.51-1.8
		c-1.34-1.2-2.03-3.15-2.07-5.85c0.04-2.72,0.73-4.7,2.07-5.92c1.29-1.2,2.8-1.79,4.51-1.78c1.13,0.02,2.12,0.26,2.98,0.72
		c0.86,0.47,1.6,1.1,2.24,1.89l-2.15,1.97c-0.74-1.01-1.72-1.54-2.95-1.58c-2.48-0.04-3.74,1.53-3.78,4.69
		c0.04,3.15,1.3,4.7,3.78,4.65c1.23-0.02,2.21-0.54,2.95-1.56L57.07,23.23z"/>
	<path d="M59.97,6.09h2.91v4.56h2.13v2.31h-2.13v8.74c-0.02,0.76,0.33,1.13,1.04,1.11h1.09v2.83h-1.52c-1.02,0-1.86-0.33-2.51-0.98
		c-0.67-0.62-1-1.53-1-2.71v-8.99h-1.46v-2.31h1.46V6.09z"/>
	<path d="M67.22,10.65h2.91v1.59h0.06c0.96-1.18,2.22-1.78,3.78-1.78c1.17,0.02,2.18,0.4,3.05,1.15l-2.13,2.6
		c-0.62-0.5-1.25-0.75-1.92-0.75c-0.75,0-1.39,0.25-1.92,0.75c-0.6,0.49-0.91,1.29-0.92,2.39v9.04h-2.91V10.65z"/>
	<path d="M86.35,24.31h-0.06c-0.27,0.51-0.69,0.89-1.26,1.13c-0.56,0.25-1.33,0.38-2.32,0.38c-1.62-0.02-2.87-0.46-3.75-1.33
		c-0.92-0.85-1.38-1.93-1.38-3.25c0-1.26,0.4-2.31,1.2-3.13c0.8-0.85,1.98-1.28,3.52-1.3h4.04v-1.58c0.02-1.32-0.97-1.97-2.98-1.93
		c-0.73,0-1.3,0.08-1.72,0.23c-0.44,0.18-0.78,0.49-1.03,0.93l-2.29-1.81c1.11-1.49,2.74-2.22,4.9-2.18
		c1.83-0.02,3.28,0.34,4.37,1.07c1.09,0.75,1.64,2.04,1.66,3.87v10.24h-2.91V24.31z M86.35,19.29h-3.5
		c-1.7,0.04-2.54,0.64-2.52,1.81c0,0.51,0.22,0.94,0.66,1.3c0.42,0.4,1.12,0.59,2.09,0.59c1.22,0.02,2.09-0.13,2.59-0.45
		c0.46-0.32,0.69-1.04,0.69-2.17V19.29z"/>
	<path d="M91.44,4.59h2.91v17.2c0,0.68,0.36,1.03,1.09,1.03h1.01v2.83h-1.3c-1.06,0-1.94-0.27-2.63-0.82
		c-0.73-0.56-1.09-1.49-1.09-2.8V4.59z"/>
	<path d="M106.87,24.31h-0.06c-0.27,0.51-0.69,0.89-1.26,1.13c-0.56,0.25-1.33,0.38-2.32,0.38c-1.62-0.02-2.87-0.46-3.75-1.33
		c-0.92-0.85-1.38-1.93-1.38-3.25c0-1.26,0.4-2.31,1.2-3.13c0.8-0.85,1.98-1.28,3.52-1.3h4.04v-1.58c0.02-1.32-0.97-1.97-2.98-1.93
		c-0.73,0-1.3,0.08-1.72,0.23c-0.44,0.18-0.78,0.49-1.03,0.93l-2.29-1.81c1.11-1.49,2.74-2.22,4.9-2.18
		c1.83-0.02,3.28,0.34,4.37,1.07c1.09,0.75,1.64,2.04,1.66,3.87v10.24h-2.91V24.31z M106.87,19.29h-3.5
		c-1.7,0.04-2.54,0.64-2.52,1.81c0,0.51,0.22,0.94,0.66,1.3c0.42,0.4,1.12,0.59,2.09,0.59c1.22,0.02,2.09-0.13,2.59-0.45
		c0.46-0.32,0.69-1.04,0.69-2.17V19.29z"/>
	<g>
		<rect x="24.29" y="28.94" class="st0" width="12.18" height="2.78"/>
		<rect x="36.51" y="28.94" class="st1" width="12.18" height="2.78"/>
		<rect x="48.73" y="28.94" class="st2" width="12.18" height="2.78"/>
		<rect x="60.95" y="28.94" class="st3" width="12.18" height="2.78"/>
		<rect x="73.17" y="28.94" class="st4" width="12.18" height="2.78"/>
		<rect x="85.39" y="28.94" class="st5" width="12.18" height="2.78"/>
		<rect x="97.61" y="28.94" class="st6" width="12.18" height="2.78"/>
	</g>
</g>
</svg>
